<?xml version="1.0" encoding="UTF-8" standalone="no"?>
<svg width="2000" height="1570" viewBox="0 0 2000 1570" xmlns="http://www.w3.org/2000/svg" font-family="'Segoe UI',system-ui,-apple-system,Roboto,Helvetica,Arial,sans-serif">
<style><![CDATA[
  .t-title{fill:#e6edf3;font-size:27px;font-weight:700}
  .t-sub{fill:#8b949e;font-size:13px}
  .ns{fill:#8b949e;font-size:13px;font-weight:600}
  .bt{font-size:15.5px;font-weight:700;fill:#fff}
  .bt2{font-size:14px;font-weight:700;fill:#fff}
  .bl{font-size:12px;fill:#e6edf3}
  .bm{font-size:11.5px;fill:#8b949e}
  .mono{font-size:11px;font-family:'SFMono-Regular',Consolas,'Liberation Mono',Menlo,monospace;fill:#d29922}
  .mono2{font-size:10.5px;font-family:'SFMono-Regular',Consolas,'Liberation Mono',Menlo,monospace;fill:#79c0ff}
  .chip-t{font-size:10.5px;font-family:'SFMono-Regular',Consolas,'Liberation Mono',Menlo,monospace;font-weight:700}
  .pill{font-size:11px;font-weight:700;fill:#fff}
  .strip-t{font-size:13px;font-weight:700;letter-spacing:.5px}
  .flow{font-size:11px;font-weight:600}
  .leg{font-size:11px;fill:#8b949e}
  .foot{font-size:12px;fill:#8b949e}
]]></style>

<defs>
  <marker id="ma" markerWidth="9" markerHeight="9" refX="6" refY="3.5" orient="auto"><path d="M0,0 L7,3.5 L0,7 Z" fill="#58a6ff"/></marker>
  <marker id="mp" markerWidth="9" markerHeight="9" refX="6" refY="3.5" orient="auto"><path d="M0,0 L7,3.5 L0,7 Z" fill="#a371f7"/></marker>
  <marker id="mg" markerWidth="9" markerHeight="9" refX="6" refY="3.5" orient="auto"><path d="M0,0 L7,3.5 L0,7 Z" fill="#3fb950"/></marker>
  <marker id="my" markerWidth="9" markerHeight="9" refX="6" refY="3.5" orient="auto"><path d="M0,0 L7,3.5 L0,7 Z" fill="#d29922"/></marker>
  <marker id="mo" markerWidth="9" markerHeight="9" refX="6" refY="3.5" orient="auto"><path d="M0,0 L7,3.5 L0,7 Z" fill="#f0883e"/></marker>
  <marker id="moS" markerWidth="9" markerHeight="9" refX="1" refY="3.5" orient="auto"><path d="M7,0 L0,3.5 L7,7 Z" fill="#f0883e"/></marker>
  <marker id="mk" markerWidth="9" markerHeight="9" refX="6" refY="3.5" orient="auto"><path d="M0,0 L7,3.5 L0,7 Z" fill="#f778ba"/></marker>
  <marker id="mgr" markerWidth="9" markerHeight="9" refX="6" refY="3.5" orient="auto"><path d="M0,0 L7,3.5 L0,7 Z" fill="#8b949e"/></marker>
</defs>

<rect x="0" y="0" width="2000" height="1570" fill="#0d1117"/>

<!-- ============ TITLE ============ -->
<text x="40" y="46" class="t-title">Kubernetes deployment — forum-dotnet (target state)</text>
<text x="40" y="72" class="t-sub">Architecture A — React SPA + .NET 10 modular monolith · minikube on WSL2 · Phases 10b–10d as built + planned Redis cache · thesis benchmark platform (vs Architecture B, Go SSR)</text>

<!-- ============ LEGEND ============ -->
<g>
  <line x1="1340" y1="44" x2="1366" y2="44" stroke="#a371f7" stroke-width="2.5"/><text x="1372" y="48" class="leg">client HTTPS/WSS</text>
  <line x1="1490" y1="44" x2="1516" y2="44" stroke="#58a6ff" stroke-width="2.5"/><text x="1522" y="48" class="leg">internal HTTP</text>
  <line x1="1622" y1="44" x2="1648" y2="44" stroke="#3fb950" stroke-width="2.5"/><text x="1654" y="48" class="leg">SQL</text>
  <line x1="1700" y1="44" x2="1726" y2="44" stroke="#f0883e" stroke-width="2.5"/><text x="1732" y="48" class="leg">AMQP</text>
  <line x1="1790" y1="44" x2="1816" y2="44" stroke="#d29922" stroke-width="2.5"/><text x="1822" y="48" class="leg">S3</text>
  <line x1="1340" y1="70" x2="1366" y2="70" stroke="#d29922" stroke-width="2.5" stroke-dasharray="5 4"/><text x="1372" y="74" class="leg">presigned bypass</text>
  <line x1="1520" y1="70" x2="1546" y2="70" stroke="#a371f7" stroke-width="2.5" stroke-dasharray="5 4"/><text x="1552" y="74" class="leg">telemetry</text>
  <line x1="1650" y1="70" x2="1676" y2="70" stroke="#f778ba" stroke-width="2.5" stroke-dasharray="5 4"/><text x="1682" y="74" class="leg">planned</text>
  <line x1="1770" y1="70" x2="1796" y2="70" stroke="#8b949e" stroke-width="2.5" stroke-dasharray="5 4"/><text x="1802" y="74" class="leg">ops / kubectl</text>
</g>

<!-- ============ EXTERNAL ACTORS ============ -->
<rect x="30" y="140" width="230" height="120" rx="10" fill="#161b22" stroke="#a371f7" stroke-width="1.5"/>
<text x="145" y="166" text-anchor="middle" class="bt2">User / Browser (Windows)</text>
<text x="46" y="190" class="bm">https://forum.local — SPA + WSS</text>
<text x="46" y="207" class="bm">hosts → 127.0.0.1 (WSL2 forward)</text>
<text x="46" y="224" class="bm">mkcert CA in Windows cert store</text>
<text x="46" y="241" class="bm">uploads PUT straight to MinIO</text>

<rect x="30" y="300" width="230" height="100" rx="10" fill="#161b22" stroke="#a371f7" stroke-width="1.5"/>
<text x="145" y="326" text-anchor="middle" class="bt2">k6 load generator (WSL)</text>
<text x="46" y="349" class="bm">scripts/run-load-test.sh profiles</text>
<text x="46" y="366" class="bm">9c: measured runs vs bench DB</text>
<text x="46" y="383" class="bm">same ingress path as real users</text>

<rect x="30" y="440" width="230" height="112" rx="10" fill="#161b22" stroke="#8b949e" stroke-width="1.5"/>
<text x="145" y="466" text-anchor="middle" class="bt2">Operator (WSL shell)</text>
<text x="46" y="489" class="bm">kubectl · make targets</text>
<text x="46" y="506" class="bm">port-forward via API :8443</text>
<text x="46" y="523" class="bm">immune to NetworkPolicies</text>
<text x="46" y="540" class="bm">DataGrip via tunnel :15432</text>

<!-- ============ CLUSTER BORDER ============ -->
<rect x="290" y="100" width="1680" height="1230" rx="14" fill="#11161d" stroke="#30363d" stroke-width="1.5"/>
<text x="312" y="126" class="ns">minikube cluster "forum" — WSL2 / Docker driver · CNI calico · addons: ingress, metrics-server · k8s API :8443</text>

<!-- ============ INGRESS-NGINX ============ -->
<rect x="320" y="170" width="320" height="290" rx="10" fill="#1a2332" stroke="#58a6ff" stroke-width="2"/>
<text x="480" y="198" text-anchor="middle" class="bt">Ingress — NGINX controller</text>
<text x="338" y="222" class="bm">namespace: ingress-nginx · class nginx</text>
<text x="338" y="240" class="bl">TLS: secret forum-tls — mkcert SAN ×3</text>
<text x="338" y="258" class="bl">308 http→https · gzip on · real 443/80</text>
<text x="338" y="288" class="mono">forum.local /      → frontend :3000</text>
<text x="338" y="306" class="mono">forum.local /api   → backend  :8080</text>
<text x="338" y="324" class="mono">  WS /api/realtime/ws (3600s timeouts)</text>
<text x="338" y="342" class="mono">minio.forum.local  → minio    :9000</text>
<text x="338" y="360" class="mono">  (proxy-body-size 10m — presigned PUT)</text>
<text x="338" y="378" class="mono">grafana.forum.local → grafana (mon ns)</text>
<text x="338" y="404" class="bm">headers pass-through · WS/SSE friendly</text>
<text x="338" y="421" class="bm">hostPort 443/80: sysctl unprivileged=80</text>

<!-- ============ CLUSTER & POLICIES NOTE ============ -->
<rect x="320" y="520" width="260" height="180" rx="10" fill="#161b22" stroke="#30363d" stroke-width="1.5"/>
<text x="450" y="546" text-anchor="middle" class="bt2">Cluster &amp; policies</text>
<text x="336" y="570" class="bm">profile forum · 6 CPU / 8–10 GB</text>
<text x="336" y="587" class="bm">calico — enforces NetworkPolicies</text>
<text x="336" y="604" class="bm">metrics-server → HPA cpu signals</text>
<text x="336" y="621" class="bm">PSS: forum-dotnet = restricted</text>
<text x="336" y="638" class="bm">        monitoring = privileged</text>
<text x="336" y="655" class="bm">prometheus-operator CRDs (Helm)</text>
<text x="336" y="672" class="bm">port-forward path bypasses netpol</text>

<!-- ============ NAMESPACE forum-dotnet ============ -->
<rect x="680" y="140" width="1270" height="700" rx="12" fill="#10151d" stroke="#1f6feb" stroke-opacity=".55" stroke-width="1.5"/>
<text x="700" y="164" class="ns">namespace: forum-dotnet — PSS restricted (enforce+warn+audit) · default-deny ingress · 5 tokenless ServiceAccounts</text>

<!-- FRONTEND -->
<rect x="710" y="185" width="410" height="135" rx="10" fill="#161b22" stroke="#3fb950" stroke-width="2"/>
<text x="915" y="211" text-anchor="middle" class="bt">Deployment: frontend — Next.js 15</text>
<text x="728" y="235" class="bl">Service :3000 · pure CSR shell — browser calls /api itself</text>
<text x="728" y="253" class="bl">image forum-dotnet-web:&lt;git-sha&gt; (bakes https://forum.local)</text>
<text x="728" y="271" class="bl">uid 1000 · ro-rootfs + .next/cache emptyDir · 50m/128Mi→300m/256Mi</text>
<rect x="728" y="286" width="56" height="20" rx="10" fill="#3fb950"/><text x="756" y="300" text-anchor="middle" class="pill">pod 1</text>
<rect x="792" y="286" width="56" height="20" rx="10" fill="#3fb950" opacity=".45"/><text x="820" y="300" text-anchor="middle" class="pill">pod 2</text>
<text x="862" y="300" class="bm">replicas 1 (scale manually)</text>

<!-- BACKEND -->
<rect x="710" y="350" width="410" height="305" rx="10" fill="#161b22" stroke="#58a6ff" stroke-width="2"/>
<text x="915" y="376" text-anchor="middle" class="bt">Deployment: backend — Forum.Api (.NET 10)</text>
<text x="728" y="400" class="bl">Service :8080 · REST /api/* · WS /api/realtime/ws · OpenAPI</text>
<text x="728" y="418" class="bl">/health/live · /health/ready (gates PG+MQ) · /metrics</text>
<text x="728" y="436" class="bl">modular monolith — module = project + schema + exchange:</text>
<text x="728" y="454" class="mono">Identity · Content · Files · Engagement (+Social planned)</text>
<text x="728" y="472" class="bl">CQRS (no MediatR) · Result 404→403→422 · outbox + inbox</text>
<text x="728" y="490" class="bl">hosted: outbox relay ×4 · consumers · orphan sweep · WS feed</text>
<text x="728" y="508" class="bl">JWT 15m + refresh rotation (httpOnly) · Argon2id · SQL ACL</text>
<text x="728" y="526" class="bl">Serilog JSON→stdout · OTel traces→Tempo · trace exemplars</text>
<text x="728" y="544" class="bl">HPA 1→3 (CPU 70%) · PDB · maxSurge 1 / maxUnavailable 0</text>
<text x="728" y="562" class="bl">uid 1654 · ro-rootfs · seccomp · preStop 5s + tGPS 40s</text>
<text x="728" y="580" class="bl">req 150m/256Mi · lim 750m/512Mi · envFrom 4 secrets + CM</text>
<rect x="728" y="598" width="56" height="20" rx="10" fill="#58a6ff"/><text x="756" y="612" text-anchor="middle" class="pill">pod 1</text>
<rect x="792" y="598" width="56" height="20" rx="10" fill="#58a6ff"/><text x="820" y="612" text-anchor="middle" class="pill">pod 2</text>
<rect x="856" y="598" width="56" height="20" rx="10" fill="#58a6ff" opacity=".45"/><text x="884" y="612" text-anchor="middle" class="pill">pod 3</text>
<text x="928" y="612" class="bm">← HPA scales 1→3</text>

<!-- REDIS (PLANNED) -->
<rect x="710" y="690" width="410" height="92" rx="10" fill="#161b22" stroke="#f778ba" stroke-width="2" stroke-dasharray="7 5"/>
<text x="880" y="716" text-anchor="middle" class="bt">Redis 7 — cache layer</text>
<rect x="1030" y="700" width="72" height="18" rx="9" fill="#d29922"/><text x="1066" y="713" text-anchor="middle" class="chip-t" fill="#0d1117">PLANNED</text>
<text x="728" y="740" class="bl">Service :6379 · Deployment ×1 · netpol: backend only</text>
<text x="728" y="757" class="bm">WS-ticket replay (cross-replica single-use) · shared rate-limit counters</text>
<text x="728" y="774" class="bm">optional hot-read cache — adopt only where k6 (9c) shows wins</text>

<!-- POSTGRES -->
<rect x="1160" y="185" width="350" height="215" rx="10" fill="#161b22" stroke="#3fb950" stroke-width="2"/>
<text x="1335" y="211" text-anchor="middle" class="bt">StatefulSet: postgres:17</text>
<text x="1178" y="235" class="bl">Service :5432 ClusterIP · PVC 4Gi · uid 999</text>
<text x="1178" y="253" class="bl">max_connections=100 — pool 30 × ≤3 replicas</text>
<text x="1178" y="271" class="bl">DB forum_net + forum_net_bench (benchmark)</text>
<text x="1178" y="289" class="bl">schema-per-module, no cross-schema FK:</text>
<text x="1178" y="307" class="mono">forum_identity · forum_authz · forum_content</text>
<text x="1178" y="325" class="mono">forum_files · forum_engagement</text>
<text x="1178" y="343" class="bl">SQL ACL: effective_mask() + perm cache</text>
<text x="1178" y="361" class="bl">FTS tsvector+GIN · keyset views · triggers</text>
<text x="1178" y="382" class="bm">250m/512Mi → 1 CPU/1Gi · ro-rootfs</text>

<!-- RABBITMQ -->
<rect x="1160" y="430" width="350" height="210" rx="10" fill="#161b22" stroke="#f0883e" stroke-width="2"/>
<text x="1335" y="456" text-anchor="middle" class="bt">StatefulSet: rabbitmq:4-management</text>
<text x="1178" y="480" class="bl">:5672 AMQP · :15692 Prometheus · UI :15672</text>
<text x="1178" y="498" class="bl">(UI tunnel-only) · user "forum" · PVC 1Gi</text>
<text x="1178" y="516" class="bl">durable topic exchange per module:</text>
<text x="1178" y="534" class="mono">identity · content · files · engagement</text>
<text x="1178" y="552" class="bl">queues: &lt;module&gt;.events + .retry + .poison</text>
<text x="1178" y="570" class="bl">publisher confirms · at-least-once · x-death</text>
<text x="1178" y="588" class="bl">WS hub: exclusive auto-delete queue/replica</text>
<text x="1178" y="609" class="bm">uid 999 · 100m/256Mi → 500m/512Mi</text>

<!-- MINIO -->
<rect x="1160" y="665" width="350" height="135" rx="10" fill="#161b22" stroke="#d29922" stroke-width="2"/>
<text x="1335" y="690" text-anchor="middle" class="bt">StatefulSet: MinIO (2025-09 pinned)</text>
<text x="1178" y="713" class="bl">:9000 S3 (+ :9001 console, tunnel) · PVC 2Gi</text>
<text x="1178" y="730" class="bl">bucket ensured by Job · CORS https://forum.local</text>
<text x="1178" y="747" class="bl">dual presign: internal svc + minio.forum.local</text>
<text x="1178" y="764" class="bl">metrics ×2: /minio/v2/metrics/cluster + bucket</text>
<text x="1178" y="784" class="bm">presigned PUT/GET — bytes never touch backend</text>

<!-- JOBS -->
<rect x="1550" y="185" width="380" height="235" rx="10" fill="#161b22" stroke="#39c5bb" stroke-width="1.5"/>
<text x="1740" y="211" text-anchor="middle" class="bt">One-shot Jobs — restricted · SHA-pinned</text>
<text x="1568" y="236" class="bl">minio-create-bucket — mc: ensure bucket + policy</text>
<text x="1568" y="256" class="bl">backend-migrate — Forum.Api "migrate" (ADR 0005):</text>
<text x="1568" y="274" class="bm">  per-module EF chains + raw SQL: authz fns, FTS,</text>
<text x="1568" y="291" class="bm">  triggers, views — never at app startup (HPA race)</text>
<text x="1568" y="311" class="bl">seed-job / seed-job-benchmark — deterministic ULIDs:</text>
<text x="1568" y="329" class="bm">  dev 5 users / 2 cat / 10 threads (login-able)</text>
<text x="1568" y="346" class="bm">  bench 800u/12c/1.6k t/9k c/15k r → forum_net_bench</text>
<text x="1568" y="372" class="bm">all: activeDeadlineSeconds · backend-secrets envFrom</text>
<text x="1568" y="392" class="bm">backend image, same git-SHA tag (apply-time sed)</text>

<!-- SECRETS / CONFIG -->
<rect x="1550" y="450" width="380" height="190" rx="10" fill="#161b22" stroke="#f85149" stroke-width="1.5" stroke-dasharray="6 5"/>
<text x="1740" y="476" text-anchor="middle" class="bt">Secrets · ConfigMap · RBAC</text>
<text x="1568" y="500" class="bl">Secrets ×4 — generate-if-missing, never overwritten:</text>
<text x="1568" y="518" class="mono2">backend-secrets · postgres/rabbitmq/minio-credentials</text>
<text x="1568" y="536" class="bl">+ forum-tls (mkcert) — mirrored into monitoring ns</text>
<text x="1568" y="554" class="bl">CM backend-config: OTLP→tempo.monitoring:4317 · CORS</text>
<text x="1568" y="572" class="bl">FwdHeaders 10.244.0.0/16 · MinIO public endpoint</text>
<text x="1568" y="590" class="bl">ThreadPool floor 64 · Npgsql pool 30 + auto-prepare</text>
<text x="1568" y="608" class="bl">Prod boot throws w/o Jwt:SigningKey (fail-fast)</text>
<text x="1568" y="626" class="bm">5 tokenless ServiceAccounts — no Roles, automount off</text>

<!-- NETWORK POLICIES -->
<rect x="1550" y="665" width="380" height="145" rx="10" fill="#161b22" stroke="#f85149" stroke-width="1.5"/>
<text x="1740" y="690" text-anchor="middle" class="bt">NetworkPolicies — default-deny</text>
<text x="1568" y="712" class="mono2">backend  ← ingress-nginx · monitoring   :8080</text>
<text x="1568" y="728" class="mono2">postgres ← backend · postgres-exporter  :5432</text>
<text x="1568" y="744" class="mono2">rabbitmq ← backend :5672 · monitor    :15692</text>
<text x="1568" y="760" class="mono2">minio    ← backend·setup·ingress·mon   :9000</text>
<text x="1568" y="776" class="mono2">frontend ← ingress-nginx               :3000</text>
<text x="1568" y="796" class="bm">egress deliberately open — recorded decision</text>

<!-- ============ NAMESPACE monitoring ============ -->
<rect x="320" y="890" width="1630" height="410" rx="12" fill="#14101c" stroke="#a371f7" stroke-opacity=".5" stroke-width="1.5"/>
<text x="340" y="916" class="ns">namespace: monitoring — PSS privileged (enforce) · Helm ×5, charts pinned · ≈1 GiB RSS budget · Grafana exposed via ingress</text>

<!-- TEMPO -->
<rect x="380" y="935" width="360" height="170" rx="10" fill="#161b22" stroke="#a371f7" stroke-width="2"/>
<text x="560" y="961" text-anchor="middle" class="bt">Tempo 2.2.3 (grafana-community)</text>
<text x="398" y="986" class="bl">OTLP gRPC :4317 ← backend spans</text>
<text x="398" y="1004" class="bl">HTTP API :3200 ← Grafana + exemplar hops</text>
<text x="398" y="1022" class="bl">traces incl. Npgsql command spans</text>
<text x="398" y="1040" class="bl">metric exemplar → trace → logs drill</text>
<text x="398" y="1061" class="bm">local storage · TraceQL bursts can OOM 512Mi</text>

<!-- PROMETHEUS -->
<rect x="770" y="935" width="560" height="170" rx="10" fill="#161b22" stroke="#d29922" stroke-width="2"/>
<text x="1050" y="961" text-anchor="middle" class="bt">Prometheus — kube-prometheus-stack 87.15.1</text>
<text x="788" y="986" class="bl">ServiceMonitors: backend /metrics (honorLabels!) · rabbitmq :15692</text>
<text x="788" y="1004" class="bl">minio ×2 (cluster + bucket) · postgres-exporter · kubelet/cAdvisor</text>
<text x="788" y="1022" class="bl">node-exporter · kube-state-metrics — mon-check gates: all UP</text>
<text x="788" y="1040" class="bl">trace-based exemplars → Tempo links · retention sized for runs</text>
<text x="788" y="1058" class="bl">15 PrometheusRules — evaluate-only (Alertmanager off)</text>
<text x="788" y="1079" class="bm">PoisonQueueNonEmpty · BackgroundLoopStale · p95 · saturation …</text>

<!-- LOKI -->
<rect x="1360" y="935" width="280" height="170" rx="10" fill="#161b22" stroke="#39c5bb" stroke-width="2"/>
<text x="1500" y="961" text-anchor="middle" class="bt">Loki 7.0.0 — single binary</text>
<text x="1378" y="986" class="bl">push ← Alloy · filesystem · 24h</text>
<text x="1378" y="1004" class="bl">JSON: @t @m @l @x @tr @sp</text>
<text x="1378" y="1022" class="bl">+ CorrelationId (request↔bus)</text>
<text x="1378" y="1040" class="bl">derived field @tr → Tempo</text>
<text x="1378" y="1061" class="bm">ingestion caps · emptyDir /var/loki</text>

<!-- GRAFANA -->
<rect x="1670" y="935" width="260" height="170" rx="10" fill="#161b22" stroke="#f0883e" stroke-width="2"/>
<text x="1800" y="961" text-anchor="middle" class="bt">Grafana</text>
<text x="1688" y="984" class="bl">ingress: grafana.forum.local</text>
<text x="1688" y="1002" class="bl">folder "Forum" — 9 dashboards:</text>
<text x="1688" y="1019" class="mono2">overview · app-red · errors-</text>
<text x="1688" y="1035" class="mono2">and-problems · database ·</text>
<text x="1688" y="1051" class="mono2">rabbitmq · minio · hpa-scaling</text>
<text x="1688" y="1067" class="mono2">· cluster-overview · business</text>
<text x="1688" y="1088" class="bl">datasources: prom · loki · tempo</text>

<!-- ROW 2 -->
<rect x="380" y="1140" width="360" height="125" rx="10" fill="#161b22" stroke="#58a6ff" stroke-width="1.5"/>
<text x="560" y="1166" text-anchor="middle" class="bt2">Alloy 1.10.1 — DaemonSet</text>
<text x="398" y="1190" class="bl">tails pod stdout via kubelet API (no hostPath)</text>
<text x="398" y="1208" class="bl">ships lines whole → Loki · "| json" at query</text>
<text x="398" y="1226" class="bm">loki.source.kubernetes (public-preview)</text>

<rect x="770" y="1140" width="280" height="125" rx="10" fill="#161b22" stroke="#3fb950" stroke-width="1.5"/>
<text x="910" y="1166" text-anchor="middle" class="bt2">postgres-exporter 8.1.1</text>
<text x="788" y="1190" class="bl">reads app-ns postgres :5432</text>
<text x="788" y="1208" class="bl">creds mirrored from app ns</text>
<text x="788" y="1226" class="bm">→ scraped by Prometheus</text>

<rect x="1080" y="1140" width="250" height="125" rx="10" fill="#161b22" stroke="#8b949e" stroke-width="1.5"/>
<text x="1205" y="1166" text-anchor="middle" class="bt2">node-exporter — DS</text>
<text x="1098" y="1190" class="bl">host metrics (hostNet/PID)</text>
<text x="1098" y="1208" class="bm">the reason this ns is</text>
<text x="1098" y="1226" class="bm">PSS privileged</text>

<rect x="1360" y="1140" width="280" height="125" rx="10" fill="#161b22" stroke="#8b949e" stroke-width="1.5"/>
<text x="1500" y="1166" text-anchor="middle" class="bt2">kube-state-metrics</text>
<text x="1378" y="1190" class="bl">workload / object states</text>
<text x="1378" y="1208" class="bl">cAdvisor pod-slices only —</text>
<text x="1378" y="1226" class="bm">queries use container=""</text>

<rect x="1670" y="1140" width="260" height="125" rx="10" fill="#161b22" stroke="#f85149" stroke-width="1.5"/>
<text x="1800" y="1166" text-anchor="middle" class="bt2">Alerting stance</text>
<text x="1688" y="1190" class="bl">rules fire in Prometheus UI</text>
<text x="1688" y="1208" class="bl">Alertmanager off (thesis scope)</text>
<text x="1688" y="1226" class="bm">poison-queue alert proven e2e</text>

<!-- ============ FLOWS ============ -->
<!-- browser -> ingress -->
<line x1="262" y1="200" x2="316" y2="240" stroke="#a371f7" stroke-width="2" marker-end="url(#mp)"/>
<rect x="234" y="211" width="110" height="18" rx="9" fill="#0d1117" stroke="#a371f7"/><text x="289" y="224" text-anchor="middle" class="chip-t" fill="#a371f7">HTTPS 443·WSS</text>
<!-- k6 -> ingress -->
<line x1="262" y1="345" x2="316" y2="360" stroke="#a371f7" stroke-width="2" marker-end="url(#mp)"/>
<rect x="246" y="343" width="86" height="18" rx="9" fill="#0d1117" stroke="#a371f7"/><text x="289" y="356" text-anchor="middle" class="chip-t" fill="#a371f7">HTTPS 443</text>
<!-- operator -> cluster -->
<line x1="262" y1="495" x2="287" y2="525" stroke="#8b949e" stroke-width="2" stroke-dasharray="5 4" marker-end="url(#mgr)"/>
<!-- ingress -> frontend -->
<line x1="642" y1="245" x2="706" y2="255" stroke="#58a6ff" stroke-width="2" marker-end="url(#ma)"/>
<rect x="626" y="240" width="96" height="18" rx="9" fill="#0d1117" stroke="#58a6ff"/><text x="674" y="253" text-anchor="middle" class="chip-t" fill="#58a6ff">HTTP :3000</text>
<!-- ingress -> backend -->
<line x1="642" y1="340" x2="706" y2="450" stroke="#58a6ff" stroke-width="2" marker-end="url(#ma)"/>
<rect x="609" y="386" width="130" height="18" rx="9" fill="#0d1117" stroke="#58a6ff"/><text x="674" y="399" text-anchor="middle" class="chip-t" fill="#58a6ff">REST + WS :8080</text>
<!-- backend -> postgres -->
<line x1="1122" y1="390" x2="1156" y2="310" stroke="#3fb950" stroke-width="2" marker-end="url(#mg)"/>
<rect x="1091" y="341" width="96" height="18" rx="9" fill="#0d1117" stroke="#3fb950"/><text x="1139" y="354" text-anchor="middle" class="chip-t" fill="#3fb950">SQL :5432</text>
<!-- backend <-> rabbitmq -->
<line x1="1124" y1="525" x2="1154" y2="531" stroke="#f0883e" stroke-width="2" marker-start="url(#moS)" marker-end="url(#mo)"/>
<rect x="1087" y="519" width="104" height="18" rx="9" fill="#0d1117" stroke="#f0883e"/><text x="1139" y="532" text-anchor="middle" class="chip-t" fill="#f0883e">AMQP :5672</text>
<!-- backend -> minio -->
<line x1="1122" y1="610" x2="1156" y2="700" stroke="#d29922" stroke-width="2" marker-end="url(#my)"/>
<rect x="1095" y="646" width="88" height="18" rx="9" fill="#0d1117" stroke="#d29922"/><text x="1139" y="659" text-anchor="middle" class="chip-t" fill="#d29922">S3 :9000</text>
<!-- backend -> redis (planned) -->
<line x1="915" y1="657" x2="915" y2="686" stroke="#f778ba" stroke-width="2" stroke-dasharray="5 4" marker-end="url(#mk)"/>
<rect x="930" y="662" width="100" height="18" rx="9" fill="#0d1117" stroke="#f778ba"/><text x="980" y="675" text-anchor="middle" class="chip-t" fill="#f778ba">RESP :6379</text>
<!-- presigned bypass: ingress -> minio, around the app -->
<polyline points="600,462 600,870 1300,870 1300,806" fill="none" stroke="#d29922" stroke-width="2" stroke-dasharray="6 5" marker-end="url(#my)"/>
<text x="950" y="860" text-anchor="middle" class="flow" fill="#d29922">minio.forum.local — presigned PUT / GET: file bytes bypass the backend (ADR 0008)</text>
<!-- backend -> tempo OTLP -->
<polyline points="712,620 695,620 695,931" fill="none" stroke="#a371f7" stroke-width="2" stroke-dasharray="5 4" marker-end="url(#mp)"/>
<text x="705" y="826" class="flow" fill="#a371f7">OTLP :4317 traces</text>
<!-- prometheus scrape (pull, upward) -->
<line x1="1310" y1="931" x2="1310" y2="846" stroke="#a371f7" stroke-width="2" stroke-dasharray="5 4" marker-end="url(#mp)"/>
<text x="1322" y="905" class="flow" fill="#a371f7">scrape (pull) — ServiceMonitors</text>

<!-- ============ BOTTOM STRIPS ============ -->
<rect x="30" y="1360" width="620" height="150" rx="10" fill="#1a1012" stroke="#f85149" stroke-width="1.5"/>
<text x="48" y="1386" class="strip-t" fill="#f85149">SECURITY &amp; HARDENING</text>
<text x="48" y="1408" class="bm">PSS restricted enforced in app ns (0 warnings) · monitoring privileged (node-exporter)</text>
<text x="48" y="1425" class="bm">default-deny + 5 allow NetworkPolicies (calico) · egress open — documented decision</text>
<text x="48" y="1442" class="bm">tokenless SAs · numeric non-root uids (1654/1000/999) · ro-rootfs · seccomp RuntimeDefault</text>
<text x="48" y="1459" class="bm">TLS end-to-end (mkcert) · HttpOnly+Secure refresh cookie · Argon2id · JWT fail-fast</text>
<text x="48" y="1476" class="bm">mgmt UIs (RabbitMQ :15672, MinIO :9001) never ingress-exposed — port-forward only</text>
<text x="48" y="1493" class="bm">migrations as Job, never at startup (ADR 0005) · imagePullPolicy Never (local images)</text>

<rect x="680" y="1360" width="640" height="150" rx="10" fill="#0f1a19" stroke="#39c5bb" stroke-width="1.5"/>
<text x="698" y="1386" class="strip-t" fill="#39c5bb">DEPLOY PIPELINE (make)</text>
<text x="698" y="1408" class="bm">mk-up → minikube: calico + ingress + metrics-server · mk-tls → mkcert SAN cert (once)</text>
<text x="698" y="1425" class="bm">mk-deploy [--seed]: build 2 images (git-SHA) → minikube image load → secrets if-missing</text>
<text x="698" y="1442" class="bm">→ infra (PG/MQ/MinIO) → Jobs: bucket · migrate · seed → backend → frontend → ingress → netpols</text>
<text x="698" y="1459" class="bm">mon-up: helm ×5 pinned + dashboard CMs + rules · mon-check: every scrape target UP</text>
<text x="698" y="1476" class="bm">rollback: kubectl rollout undo (SHA-addressed history) · reset-db.sh · seed --benchmark</text>
<text x="698" y="1493" class="bm">load: scripts/run-load-test.sh (k6) — Phase 9c measured runs vs forum_net_bench</text>

<rect x="1350" y="1360" width="620" height="150" rx="10" fill="#101820" stroke="#58a6ff" stroke-width="1.5"/>
<text x="1368" y="1386" class="strip-t" fill="#58a6ff">ACCESS FROM WINDOWS (WSL2)</text>
<text x="1368" y="1408" class="bm">minikube ip UNREACHABLE from Windows — everything rides WSL2 localhost forwarding</text>
<text x="1368" y="1425" class="bm">ingress on real 443/80 (sysctl ip_unprivileged_port_start=80) · hosts file → 127.0.0.1</text>
<text x="1368" y="1442" class="bm">mkcert CA imported into the Windows cert store (browser trust)</text>
<text x="1368" y="1459" class="bm">make tunnels — local = remote + 10000, auto-reconnect, Ctrl+C stops all:</text>
<text x="1368" y="1476" class="mono2">backend 18080 · postgres 15432 · rabbit UI 25672 · minio console 19001</text>
<text x="1368" y="1493" class="mono2">grafana 13001 · prometheus 19090 — API-server path, immune to netpol</text>

<text x="1000" y="1545" text-anchor="middle" class="foot">forum-dotnet — Architecture A (React SPA + .NET 10 modular monolith) · target-state Kubernetes deployment · docs/architecture/diagrams/ · 2026-07</text>
</svg>
